<svg width="140" height="22" viewBox="0 0 140 22" fill="none" xmlns="http://www.w3.org/2000/svg">
<g clip-path="url(#clip0_106_183)">
<path d="M0.598996 3.91625C0.244962 3.50124 0.050293 2.95511 0.050293 2.37707C0.050293 1.15142 0.932858 0.153809 2.01715 0.153809C3.10145 0.153809 3.98401 1.15142 3.98401 2.37707C3.98401 2.95511 3.78934 3.5001 3.43531 3.91625H0.598996Z" fill="white"/>
<path d="M2.01729 0.210937C3.07435 0.210937 3.93372 1.18233 3.93372 2.37719C3.93372 2.93243 3.74914 3.45689 3.41326 3.85936H0.621326C0.285447 3.45689 0.100865 2.93243 0.100865 2.37719C0.100865 1.18233 0.960231 0.210937 2.01729 0.210937ZM2.01729 0.0969238C0.902738 0.0969238 0 1.11734 0 2.37719C0 2.99856 0.219885 3.56179 0.577954 3.97337H3.45663C3.8147 3.56179 4.03458 2.99856 4.03458 2.37719C4.03458 1.11734 3.13184 0.0969238 2.01729 0.0969238Z" fill="white"/>
<path d="M36.4412 3.91625C35.5395 3.91625 34.8052 3.07141 34.8052 2.03275C34.8052 0.994086 35.4769 0.216516 36.3333 0.153809H36.5522C37.4055 0.216516 38.0762 1.04197 38.0762 2.03275C38.0762 3.02352 37.3429 3.91625 36.4412 3.91625Z" fill="white"/>
<path d="M36.5493 0.210937C37.3774 0.273644 38.026 1.07402 38.026 2.03287C38.026 3.03961 37.3149 3.85936 36.4414 3.85936C35.5679 3.85936 34.8558 3.03961 34.8558 2.03287C34.8558 1.02613 35.5043 0.273644 36.3334 0.210937H36.5483M36.5513 0.0969238H36.3294C35.4489 0.161911 34.7539 1.00333 34.7539 2.03287C34.7539 3.06241 35.5084 3.97337 36.4404 3.97337C37.3723 3.97337 38.1258 3.10459 38.1258 2.03287C38.1258 0.961144 37.4309 0.161911 36.5513 0.0969238Z" fill="white"/>
<path d="M59.1692 3.90941C58.2675 3.90941 57.5332 3.06343 57.5332 2.02477C57.5332 1.06363 58.1586 0.258701 58.9877 0.153809H59.3568C60.1799 0.258701 60.8042 1.06363 60.8042 2.02477C60.8042 3.06343 60.071 3.90941 59.1692 3.90941Z" fill="white"/>
<path d="M59.3509 0.210937C60.1507 0.315829 60.7539 1.09454 60.7539 2.02489C60.7539 3.03277 60.0428 3.85252 59.1693 3.85252C58.2958 3.85252 57.5837 3.03277 57.5837 2.02489C57.5837 1.09454 58.1869 0.315829 58.9878 0.210937H59.3519M59.358 0.0969238H58.9827C58.1395 0.204096 57.4839 1.02613 57.4839 2.02489C57.4839 3.09775 58.2384 3.96653 59.1703 3.96653C60.1023 3.96653 60.8558 3.09775 60.8558 2.02489C60.8558 1.02613 60.2002 0.204096 59.358 0.0969238Z" fill="white"/>
<path d="M3.98401 9.16113H0.050293V12.9236H3.98401V9.16113Z" fill="white"/>
<path d="M3.93372 9.21802V12.8664H0.100865V9.21802H3.93372ZM4.03458 9.104H0V12.9805H4.03458V9.104Z" fill="white"/>
<path d="M7.56463 21.9306C4.56794 21.9306 1.86074 20.42 0.667512 18.0827C0.26708 17.2994 0.0592987 16.4648 0.0512295 15.6018C0.0502209 15.5812 0.0512295 15.5641 0.0512295 15.5459C0.0512295 14.6646 0.25901 13.8106 0.667512 13.0091C1.33423 11.7025 2.51031 10.6125 3.98495 9.93188V15.4889C3.98495 16.9038 5.59172 18.0542 7.56564 18.0542C9.53956 18.0542 11.1463 16.9038 11.1463 15.4889V9.93188C12.62 10.6125 13.796 11.7025 14.4638 13.0091C14.8733 13.8106 15.08 14.6646 15.08 15.5459C15.08 15.5641 15.08 15.5812 15.08 15.5995C15.071 16.4648 14.8632 17.2994 14.4638 18.0827C13.2715 20.42 10.5643 21.9306 7.56665 21.9306H7.56463Z" fill="white"/>
<path d="M11.1954 10.0173C12.6267 10.6945 13.7675 11.7628 14.418 13.0375C14.8225 13.831 15.0283 14.6747 15.0283 15.5458C15.0283 15.5629 15.0283 15.5789 15.0283 15.6017C15.0192 16.4545 14.8144 17.2799 14.418 18.0541C13.2339 20.3743 10.5438 21.8735 7.5653 21.8735C4.58677 21.8735 1.8957 20.3743 0.71256 18.0541C0.316162 17.2799 0.111407 16.4545 0.102329 15.596C0.102329 15.5789 0.102329 15.5629 0.102329 15.5458C0.102329 14.6747 0.307084 13.831 0.71256 13.0375C1.36314 11.7628 2.50492 10.6945 3.93518 10.0173V15.4888C3.93518 16.9345 5.56414 18.1111 7.56631 18.1111C9.56847 18.1111 11.1974 16.9345 11.1974 15.4888V10.0173M11.0966 9.84741V15.4888C11.0966 16.874 9.51602 17.9971 7.56631 17.9971C5.61659 17.9971 4.03605 16.874 4.03605 15.4888V9.84741C2.52106 10.5292 1.3117 11.6351 0.624808 12.9805C0.223367 13.7672 0.00146484 14.6337 0.00146484 15.5458C0.00146484 15.5652 0.00146484 15.5834 0.00146484 15.6028C0.0105427 16.4932 0.231436 17.3415 0.624808 18.1111C1.78878 20.3925 4.45867 21.9875 7.5653 21.9875C10.6719 21.9875 13.3418 20.3925 14.5058 18.1111C14.8992 17.3415 15.1201 16.4932 15.1291 15.6028C15.1301 15.5834 15.1301 15.5652 15.1301 15.5458C15.1301 14.6337 14.9082 13.7672 14.5068 12.9805C13.8199 11.6351 12.6105 10.5292 11.0956 9.84741H11.0966Z" fill="white"/>
<path d="M0.050293 15.5457V3.09888C0.319601 4.03493 1.09928 4.71444 2.01715 4.71444C2.93502 4.71444 3.7147 4.03607 3.98401 3.09888V15.5457H0.050293Z" fill="white"/>
<path d="M3.93372 3.39648V15.4887H0.100865V3.39648C0.439769 4.20825 1.17205 4.77148 2.01729 4.77148C2.86254 4.77148 3.59481 4.20825 3.93372 3.39648ZM4.03458 2.3772C4.03458 3.63704 3.13184 4.65746 2.01729 4.65746C0.902738 4.65746 0 3.63704 0 2.3772V15.6027H4.03458V2.3772Z" fill="white"/>
<path d="M11.1455 15.5456V3.09994C11.2232 3.37243 11.3452 3.6244 11.5066 3.84786C11.5217 3.87067 11.5389 3.89347 11.557 3.91513L11.5823 3.94705C11.6004 3.96986 11.6186 3.99266 11.6387 4.01318C11.6599 4.03941 11.6851 4.06677 11.7114 4.09185L11.7194 4.10097C11.7315 4.11351 11.7426 4.12606 11.7547 4.13632C11.7668 4.14886 11.783 4.16482 11.7991 4.17964C11.8294 4.20815 11.8616 4.23665 11.8949 4.26287C11.9131 4.27997 11.9353 4.29708 11.9585 4.31304C11.9877 4.3347 12.015 4.35522 12.0422 4.37346C12.0704 4.39285 12.0997 4.41223 12.1289 4.42933C12.2449 4.50116 12.37 4.56159 12.4991 4.60719C12.5324 4.61859 12.5647 4.62999 12.598 4.63912C12.6595 4.65736 12.7281 4.67332 12.8007 4.68586C12.8632 4.69726 12.9288 4.7041 12.9994 4.70866C13.0367 4.71208 13.075 4.71322 13.1144 4.71322C13.1537 4.71322 13.1931 4.71208 13.2314 4.70866C13.301 4.70524 13.3655 4.69726 13.4291 4.687C13.5017 4.67446 13.5693 4.6585 13.6318 4.64026C13.6641 4.63113 13.6964 4.62087 13.7297 4.60833C13.8588 4.56273 13.9828 4.50344 14.0998 4.43047C14.1281 4.41337 14.1573 4.39399 14.1866 4.3746C14.2138 4.35636 14.241 4.33584 14.2683 4.31532C14.2925 4.29708 14.3147 4.27997 14.3359 4.26059C14.3661 4.23665 14.3984 4.20815 14.4297 4.1785C14.4448 4.16482 14.4609 4.14886 14.4761 4.1329C14.4851 4.12492 14.4962 4.11351 14.5083 4.10097L14.5174 4.09071C14.5416 4.06677 14.5678 4.03941 14.591 4.00976C14.6082 3.99152 14.6263 3.96872 14.6445 3.94591L14.6697 3.91399C14.6879 3.89119 14.705 3.86839 14.7212 3.84444C14.8815 3.62212 15.0036 3.37015 15.0812 3.09766V15.5433H11.1475L11.1455 15.5456Z" fill="white"/>
<path d="M15.029 3.39876V15.4887H11.1961V3.39876C11.2677 3.57092 11.3585 3.73281 11.4654 3.88217C11.4826 3.90726 11.5007 3.9312 11.5199 3.95514L11.533 3.97224L11.5451 3.98706C11.5633 4.00987 11.5814 4.03267 11.6016 4.05433C11.6248 4.08284 11.65 4.1102 11.6752 4.13528L11.6843 4.14554C11.6954 4.15808 11.7075 4.16949 11.7186 4.18089C11.7337 4.19685 11.7499 4.21167 11.764 4.22535C11.7912 4.25158 11.8245 4.28122 11.8608 4.31086C11.883 4.33138 11.9062 4.34849 11.9274 4.36445C11.9556 4.38611 11.9849 4.40777 12.0131 4.42602C12.0434 4.44654 12.0726 4.46592 12.1019 4.48302C12.2219 4.55713 12.349 4.6187 12.4811 4.66544C12.5154 4.67798 12.5487 4.68825 12.581 4.69737C12.6445 4.71675 12.7151 4.73271 12.7888 4.74525C12.8533 4.75665 12.9209 4.76463 12.9905 4.76806C13.0268 4.77148 13.0661 4.77262 13.1115 4.77262C13.1569 4.77262 13.1963 4.77148 13.2295 4.76806C13.3022 4.76463 13.3697 4.75665 13.4333 4.74525C13.5079 4.73271 13.5775 4.71675 13.6401 4.69737C13.6744 4.68825 13.7076 4.67684 13.7419 4.6643C13.8741 4.61756 14.0022 4.55599 14.1202 4.48302C14.1504 4.46478 14.1797 4.4454 14.2089 4.42602C14.2372 4.40663 14.2664 4.38497 14.2947 4.36331C14.3159 4.34735 14.3391 4.33024 14.3612 4.30972C14.3976 4.28122 14.4308 4.25043 14.4571 4.22649C14.4732 4.21167 14.4893 4.19685 14.5045 4.18089C14.5166 4.17063 14.5277 4.15808 14.5388 4.14554L14.5458 4.13756C14.5741 4.1102 14.5993 4.0817 14.6225 4.05433C14.6416 4.03267 14.6608 4.00987 14.679 3.98706L14.6921 3.96996L14.7042 3.95514C14.7233 3.9312 14.7415 3.90726 14.7566 3.88559C14.8656 3.7351 14.9563 3.57206 15.028 3.3999M15.1288 2.37834C15.1288 2.49691 15.1208 2.61206 15.1056 2.72494C15.0955 2.79791 15.0824 2.86973 15.0673 2.94042C15.0663 2.94384 15.0663 2.94612 15.0653 2.9484C15.0572 2.98489 15.0481 3.02023 15.038 3.05672C14.9614 3.33605 14.8383 3.59144 14.678 3.81376C14.6588 3.84227 14.6376 3.86849 14.6164 3.89585C14.5952 3.92208 14.5741 3.94944 14.5509 3.97452C14.5287 4.00189 14.5045 4.02811 14.4803 4.05205C14.4661 4.06687 14.453 4.0817 14.4389 4.09424C14.4248 4.10906 14.4097 4.12388 14.3945 4.13756C14.3643 4.16607 14.334 4.19343 14.3017 4.21851C14.2816 4.23675 14.2604 4.25272 14.2392 4.26868C14.212 4.2892 14.1847 4.30972 14.1575 4.32796C14.1293 4.34735 14.101 4.36559 14.0728 4.38269C13.9588 4.45338 13.8378 4.51153 13.7117 4.55599C13.6794 4.56739 13.6481 4.57765 13.6159 4.58677C13.5513 4.60616 13.4847 4.62098 13.4182 4.63238C13.3546 4.64378 13.2901 4.65062 13.2245 4.65404C13.1872 4.65746 13.1499 4.6586 13.1115 4.6586C13.0732 4.6586 13.0359 4.65746 12.9986 4.65404C12.933 4.65062 12.8684 4.64378 12.8049 4.63238C12.7383 4.62098 12.6718 4.60616 12.6072 4.58677C12.5749 4.57765 12.5437 4.56739 12.5114 4.55599C12.3853 4.51153 12.2643 4.45338 12.1503 4.38269C12.122 4.36559 12.0938 4.34735 12.0656 4.32796C12.0383 4.30972 12.0111 4.2892 11.9839 4.26868C11.9627 4.25272 11.9415 4.23675 11.9213 4.21851C11.8891 4.19343 11.8588 4.16607 11.8285 4.13756C11.8134 4.12388 11.7983 4.10906 11.7842 4.09424C11.77 4.0817 11.7569 4.06687 11.7428 4.05205C11.7186 4.02811 11.6944 4.00189 11.6722 3.97452C11.649 3.94944 11.6278 3.92208 11.6066 3.89585C11.5854 3.86849 11.5643 3.84227 11.5451 3.81376C11.3847 3.59144 11.2617 3.33605 11.185 3.05672C11.1749 3.02023 11.1659 2.98489 11.1578 2.9484C11.1568 2.94612 11.1568 2.94384 11.1558 2.94042C11.1406 2.86973 11.1275 2.79791 11.1174 2.72494C11.1023 2.61206 11.0942 2.49691 11.0942 2.37834V15.6039H15.1288V2.3772V2.37834Z" fill="white"/>
<path d="M2.01715 4.60033C1.48358 4.60033 0.985307 4.36318 0.614126 3.93335C0.250005 3.51606 0.050293 2.9631 0.050293 2.37707C0.050293 1.15142 0.932858 0.153809 2.01715 0.153809C3.10145 0.153809 3.98401 1.15142 3.98401 2.37707C3.98401 2.9631 3.7843 3.51606 3.42018 3.93335C3.049 4.36318 2.55073 4.60033 2.01715 4.60033Z" fill="white"/>
<path d="M2.01729 0.210937C3.07435 0.210937 3.93372 1.18233 3.93372 2.37719C3.93372 2.9484 3.73905 3.48654 3.38401 3.89357C3.0219 4.31199 2.53674 4.54344 2.01729 4.54344C1.49784 4.54344 1.01167 4.31313 0.649568 3.89357C0.295533 3.48654 0.100865 2.9484 0.100865 2.37719C0.100865 1.18233 0.960231 0.210937 2.01729 0.210937ZM2.01729 0.0969238C0.902738 0.0969238 0 1.11734 0 2.37719C0 2.99856 0.219885 3.56179 0.577954 3.97338C0.943083 4.39636 1.45245 4.65745 2.01729 4.65745C2.58213 4.65745 3.0915 4.39636 3.45663 3.97338C3.8147 3.56179 4.03458 2.99856 4.03458 2.37719C4.03458 1.11734 3.13184 0.0969238 2.01729 0.0969238Z" fill="white"/>
<path d="M13.1124 4.60033C12.5788 4.60033 12.0805 4.36318 11.7093 3.93335C11.3462 3.51492 11.1455 2.9631 11.1455 2.37707C11.1455 1.15142 12.0281 0.153809 13.1124 0.153809C14.1967 0.153809 15.0792 1.15142 15.0792 2.37707C15.0792 2.9631 14.8795 3.51606 14.5154 3.93335C14.1442 4.36318 13.6459 4.60033 13.1124 4.60033Z" fill="white"/>
<path d="M13.1125 0.210937C14.1696 0.210937 15.0289 1.18233 15.0289 2.37719C15.0289 2.9484 14.8343 3.48654 14.4792 3.89357C14.1171 4.31199 13.632 4.54344 13.1125 4.54344C12.5931 4.54344 12.1069 4.31313 11.7448 3.89357C11.3907 3.48654 11.1961 2.9484 11.1961 2.37719C11.1961 1.18233 12.0554 0.210937 13.1125 0.210937ZM13.1125 0.0969238C11.998 0.0969238 11.0952 1.11734 11.0952 2.37719C11.0952 2.99856 11.3151 3.56179 11.6732 3.97338C12.0383 4.39636 12.5477 4.65745 13.1125 4.65745C13.6773 4.65745 14.1867 4.39636 14.5518 3.97338C14.9099 3.56179 15.1298 2.99856 15.1298 2.37719C15.1298 1.11734 14.2271 0.0969238 13.1125 0.0969238Z" fill="white"/>
<path d="M19.9517 4.61742C21.038 4.61742 21.9186 3.62203 21.9186 2.39416C21.9186 1.16629 21.038 0.170898 19.9517 0.170898C18.8655 0.170898 17.9849 1.16629 17.9849 2.39416C17.9849 3.62203 18.8655 4.61742 19.9517 4.61742Z" fill="white"/>
<path d="M19.9519 0.228027C21.0089 0.228027 21.8683 1.19942 21.8683 2.39428C21.8683 3.58914 21.0089 4.56053 19.9519 4.56053C18.8948 4.56053 18.0354 3.58914 18.0354 2.39428C18.0354 1.19942 18.8948 0.228027 19.9519 0.228027ZM19.9519 0.114014C18.8373 0.114014 17.9346 1.13443 17.9346 2.39428C17.9346 3.65413 18.8373 4.67454 19.9519 4.67454C21.0664 4.67454 21.9692 3.65413 21.9692 2.39428C21.9692 1.13443 21.0664 0.114014 19.9519 0.114014Z" fill="white"/>
<path d="M36.4412 3.91617C35.5395 3.91617 34.8052 3.07133 34.8052 2.03267C34.8052 0.994008 35.4769 0.216438 36.3333 0.15373C36.3696 0.15031 36.4049 0.14917 36.4412 0.14917C36.4775 0.14917 36.5128 0.14917 36.5481 0.15373C37.4055 0.217578 38.0762 1.04189 38.0762 2.03267C38.0762 3.02344 37.3429 3.91617 36.4412 3.91617Z" fill="white"/>
<path d="M36.4413 0.206298C36.4807 0.206298 36.514 0.207439 36.5452 0.210859C37.3753 0.272426 38.0259 1.0728 38.0259 2.03279C38.0259 2.99278 37.3148 3.85928 36.4413 3.85928C35.5679 3.85928 34.8557 3.03953 34.8557 2.03279C34.8557 1.02605 35.5063 0.272426 36.3385 0.210859C36.3687 0.208579 36.402 0.206298 36.4413 0.206298ZM36.4413 0.0922852C36.404 0.0922852 36.3667 0.0934253 36.3304 0.0968457C35.4498 0.161833 34.7549 1.00325 34.7549 2.03279C34.7549 3.06233 35.5093 3.9733 36.4413 3.9733C37.3733 3.9733 38.1268 3.10452 38.1268 2.03279C38.1268 0.961066 37.4318 0.161833 36.5523 0.0968457C36.516 0.0934253 36.4787 0.0922852 36.4413 0.0922852Z" fill="white"/>
<path d="M28.9229 4.5034C29.9841 4.5034 30.8444 3.50802 30.8444 2.28014C30.8444 1.05227 29.9841 0.0568848 28.9229 0.0568848C27.8617 0.0568848 27.0015 1.05227 27.0015 2.28014C27.0015 3.50802 27.8617 4.5034 28.9229 4.5034Z" fill="white"/>
<path d="M28.9231 0.114013C29.9549 0.114013 30.7941 1.08541 30.7941 2.28027C30.7941 3.47512 29.9549 4.44652 28.9231 4.44652C27.8912 4.44652 27.052 3.47512 27.052 2.28027C27.052 1.08541 27.8912 0.114013 28.9231 0.114013ZM28.9231 0C27.8337 0 26.9512 1.02042 26.9512 2.28027C26.9512 3.54011 27.8337 4.56053 28.9231 4.56053C30.0124 4.56053 30.895 3.54011 30.895 2.28027C30.895 1.02042 30.0124 0 28.9231 0Z" fill="white"/>
<path d="M28.9288 21.8335C28.8481 21.8335 28.7684 21.8278 28.6897 21.8164C27.8425 21.7012 27.1455 20.9579 26.9942 20.0081C26.973 19.8793 26.9619 19.7459 26.9619 19.6102C26.9619 19.4426 26.9781 19.2762 27.0113 19.1177C27.092 18.7084 27.2746 18.3344 27.5399 18.0368C27.9111 17.6173 28.4043 17.387 28.9298 17.387C29.3968 17.387 29.8487 17.5751 30.2027 17.916C30.241 17.9525 30.2804 17.9924 30.3197 18.0368C30.584 18.3344 30.7665 18.7084 30.8482 19.1177C30.8805 19.2762 30.8976 19.4426 30.8976 19.6102C30.8976 20.7344 30.1553 21.683 29.1698 21.8164C29.0912 21.8278 29.0115 21.8335 28.9308 21.8335H28.9288Z" fill="white"/>
<path d="M28.9289 17.4439C29.3838 17.4439 29.8246 17.6275 30.1696 17.9604C30.2069 17.9946 30.2442 18.0345 30.2825 18.0778C30.5398 18.3674 30.7183 18.7323 30.797 19.1313C30.8282 19.2852 30.8444 19.4471 30.8444 19.6102C30.8444 20.7058 30.1212 21.6294 29.1609 21.7605C29.0843 21.7707 29.0066 21.7764 28.9279 21.7764C28.8493 21.7764 28.7716 21.7707 28.6949 21.7605C27.8699 21.6476 27.19 20.9236 27.0428 19.9978C27.0216 19.8736 27.0115 19.7436 27.0115 19.6113C27.0115 19.4471 27.0276 19.2864 27.0599 19.1313C27.1386 18.7334 27.3171 18.3686 27.5743 18.079C27.9354 17.6708 28.4166 17.4451 28.9279 17.4451M28.9279 17.3311C28.3712 17.3311 27.8668 17.5864 27.5027 17.998C27.2374 18.2967 27.0458 18.6787 26.9611 19.1062C26.9278 19.2681 26.9106 19.438 26.9106 19.6113C26.9106 19.7504 26.9217 19.8872 26.9439 20.0195C27.0993 20.9954 27.8033 21.7548 28.6828 21.8745C28.7635 21.8859 28.8452 21.8916 28.9279 21.8916C29.0106 21.8916 29.0923 21.8859 29.173 21.8745C30.1716 21.7388 30.9452 20.7777 30.9452 19.6113C30.9452 19.438 30.9281 19.2681 30.8948 19.1062C30.8101 18.6787 30.6184 18.2967 30.3532 17.998C30.3148 17.9547 30.2745 17.9125 30.2331 17.8738C29.8821 17.5351 29.4262 17.3311 28.9279 17.3311Z" fill="white"/>
<path d="M18.6834 4.40989L18.6824 4.4019L18.6723 4.3905L18.1528 3.39859L21.552 1.12402L23.1123 4.10547L25.8619 9.35806L30.5652 18.3469L30.5239 18.3754L30.3272 18.5053L27.1661 20.6214L18.6834 4.40989Z" fill="white"/>
<path d="M21.5346 1.20161L23.0687 4.13517L25.8183 9.38776L27.0287 11.7011L27.8951 13.3566L30.4964 18.3287L30.3017 18.4575L27.293 20.471L27.183 20.5451L26.1391 18.5499L23.3905 13.2973L21.3137 9.32847L18.7316 4.39398V4.37688L18.7104 4.35407L18.5651 4.07588L18.2212 3.41917L21.5336 1.20161M21.5689 1.04541L21.4842 1.10128L18.083 3.37812L18.4784 4.13289L18.6307 4.42362H18.6317V4.4259L21.227 9.38548L23.3038 13.3543L26.0523 18.6069L27.1467 20.7002L27.183 20.6762L27.3444 20.569L30.3532 18.5556L30.5489 18.4256L30.6336 18.3686L27.9819 13.2996L27.1154 11.6441L25.9051 9.33075L23.1555 4.07816L21.5699 1.04655L21.5689 1.04541Z" fill="white"/>
<path d="M30.8451 2.20605H27.0122V19.9727H30.8451V2.20605Z" fill="white"/>
<path d="M30.7948 2.26318V19.9159H27.0628V2.26318H30.7948ZM30.8956 2.14917H26.9619V20.0299H30.8956V2.14917Z" fill="white"/>
<path d="M60.8548 2.02498C60.8548 3.09784 60.1003 3.96662 59.1694 3.96662C58.2384 3.96662 57.4829 3.09784 57.4829 2.02498C57.4829 1.02622 58.1385 0.204187 58.9818 0.0970141C59.0433 0.0890332 59.1058 0.0844727 59.1694 0.0844727C59.2329 0.0844727 59.2954 0.0890332 59.357 0.0970141C60.1992 0.204187 60.8548 1.02622 60.8548 2.02498Z" fill="white"/>
<path d="M74.7045 4.00528C75.6353 4.00528 76.3899 3.13649 76.3899 2.06477C76.3899 0.993062 75.6353 0.124268 74.7045 0.124268C73.7736 0.124268 73.019 0.993062 73.019 2.06477C73.019 3.13649 73.7736 4.00528 74.7045 4.00528Z" fill="white"/>
<path d="M91.246 4.00528C92.1768 4.00528 92.9314 3.13649 92.9314 2.06477C92.9314 0.993062 92.1768 0.124268 91.246 0.124268C90.3151 0.124268 89.5605 0.993062 89.5605 2.06477C89.5605 3.13649 90.3151 4.00528 91.246 4.00528Z" fill="white"/>
<path d="M36.4344 12.9496C35.5326 12.9496 34.7983 12.1048 34.7983 11.0661C34.7983 10.0275 35.4701 9.24989 36.3264 9.18718C36.3627 9.18376 36.3981 9.18262 36.4344 9.18262C36.4707 9.18262 36.506 9.18262 36.5413 9.18718C37.3986 9.25103 38.0694 10.0753 38.0694 11.0661C38.0694 12.0569 37.3361 12.9496 36.4344 12.9496Z" fill="white"/>
<path d="M36.4345 9.23975C36.4738 9.23975 36.5071 9.24089 36.5384 9.24431C37.3685 9.30587 38.0191 10.1062 38.0191 11.0662C38.0191 12.0262 37.308 12.8927 36.4345 12.8927C35.561 12.8927 34.8489 12.073 34.8489 11.0662C34.8489 10.0595 35.4995 9.30587 36.3316 9.24431C36.3619 9.24203 36.3952 9.23975 36.4345 9.23975ZM36.4345 9.12573C36.3972 9.12573 36.3599 9.12687 36.3236 9.13029C35.443 9.19528 34.748 10.0367 34.748 11.0662C34.748 12.0958 35.5025 13.0067 36.4345 13.0067C37.3665 13.0067 38.1199 12.138 38.1199 11.0662C38.1199 9.99451 37.425 9.19528 36.5455 9.13029C36.5091 9.12687 36.4718 9.12573 36.4345 9.12573Z" fill="white"/>
<path d="M49.4456 12.9496C48.5439 12.9496 47.8096 12.1048 47.8096 11.0661C47.8096 10.0275 48.4813 9.24989 49.3377 9.18718C49.374 9.18376 49.4093 9.18262 49.4456 9.18262C49.4819 9.18262 49.5172 9.18262 49.5525 9.18718C50.4099 9.25103 51.0806 10.0753 51.0806 11.0661C51.0806 12.0569 50.3473 12.9496 49.4456 12.9496Z" fill="white"/>
<path d="M49.4457 9.23975C49.4851 9.23975 49.5184 9.24089 49.5496 9.24431C50.3797 9.30587 51.0303 10.1062 51.0303 11.0662C51.0303 12.0262 50.3192 12.8927 49.4457 12.8927C48.5722 12.8927 47.8601 12.073 47.8601 11.0662C47.8601 10.0595 48.5107 9.30587 49.3429 9.24431C49.3731 9.24203 49.4064 9.23975 49.4457 9.23975ZM49.4457 9.12573C49.4084 9.12573 49.3711 9.12687 49.3348 9.13029C48.4542 9.19528 47.7593 10.0367 47.7593 11.0662C47.7593 12.0958 48.5137 13.0067 49.4457 13.0067C50.3777 13.0067 51.1312 12.138 51.1312 11.0662C51.1312 9.99451 50.4362 9.19528 49.5567 9.13029C49.5204 9.12687 49.4831 9.12573 49.4457 9.12573Z" fill="white"/>
<path d="M69.8478 19.0196L60.714 1.13711C60.66 1.03132 60.5403 0.99507 60.4467 1.05615L57.8157 2.77319C57.7221 2.83427 57.6901 2.96954 57.7441 3.07533L66.8779 20.9578C66.9319 21.0636 67.0516 21.0999 67.1452 21.0388L69.7762 19.3218C69.8698 19.2607 69.9019 19.1254 69.8478 19.0196Z" fill="white"/>
<path d="M68.3881 21.9999C69.3362 21.9999 70.1048 21.1311 70.1048 20.0594C70.1048 18.9877 69.3362 18.1189 68.3881 18.1189C67.44 18.1189 66.6714 18.9877 66.6714 20.0594C66.6714 21.1311 67.44 21.9999 68.3881 21.9999Z" fill="white"/>
<path d="M59.1562 21.9875C60.1043 21.9875 60.8729 21.1187 60.8729 20.047C60.8729 18.9752 60.1043 18.1064 59.1562 18.1064C58.2081 18.1064 57.4395 18.9752 57.4395 20.047C57.4395 21.1187 58.2081 21.9875 59.1562 21.9875Z" fill="white"/>
<path d="M75.9575 21.3861L92.363 3.51579C92.4408 3.43102 92.4431 3.291 92.3681 3.20304L90.26 0.730269C90.185 0.642308 90.0611 0.639717 89.9833 0.724483L73.5778 18.5948C73.5 18.6796 73.4977 18.8196 73.5727 18.9076L75.6808 21.3803C75.7558 21.4683 75.8797 21.4709 75.9575 21.3861Z" fill="white"/>
<path d="M74.6571 21.9943C75.588 21.9943 76.3426 21.1255 76.3426 20.0538C76.3426 18.9821 75.588 18.1133 74.6571 18.1133C73.7263 18.1133 72.9717 18.9821 72.9717 20.0538C72.9717 21.1255 73.7263 21.9943 74.6571 21.9943Z" fill="white"/>
<path d="M113.187 21.9943C114.118 21.9943 114.873 21.1255 114.873 20.0538C114.873 18.9821 114.118 18.1133 113.187 18.1133C112.257 18.1133 111.502 18.9821 111.502 20.0538C111.502 21.1255 112.257 21.9943 113.187 21.9943Z" fill="white"/>
<path d="M113.203 12.9894C114.133 12.9894 114.888 12.1206 114.888 11.0489C114.888 9.97719 114.133 9.1084 113.203 9.1084C112.272 9.1084 111.517 9.97719 111.517 11.0489C111.517 12.1206 112.272 12.9894 113.203 12.9894Z" fill="white"/>
<path d="M113.203 3.98257C114.133 3.98257 114.888 3.11378 114.888 2.04207C114.888 0.970357 114.133 0.101562 113.203 0.101562C112.272 0.101562 111.517 0.970357 111.517 2.04207C111.517 3.11378 112.272 3.98257 113.203 3.98257Z" fill="#FFFF00"/>
<path d="M97.871 3.98257C98.8018 3.98257 99.5564 3.11378 99.5564 2.04207C99.5564 0.970357 98.8018 0.101562 97.871 0.101562C96.9401 0.101562 96.1855 0.970357 96.1855 2.04207C96.1855 3.11378 96.9401 3.98257 97.871 3.98257Z" fill="white"/>
<path d="M97.871 12.9894C98.8018 12.9894 99.5564 12.1206 99.5564 11.0489C99.5564 9.97719 98.8018 9.1084 97.871 9.1084C96.9401 9.1084 96.1855 9.97719 96.1855 11.0489C96.1855 12.1206 96.9401 12.9894 97.871 12.9894Z" fill="white"/>
<path d="M97.871 21.9965C98.8018 21.9965 99.5564 21.1277 99.5564 20.056C99.5564 18.9843 98.8018 18.1155 97.871 18.1155C96.9401 18.1155 96.1855 18.9843 96.1855 20.056C96.1855 21.1277 96.9401 21.9965 97.871 21.9965Z" fill="#FFFF00"/>
<path d="M122.28 21.9965C123.211 21.9965 123.966 21.1277 123.966 20.056C123.966 18.9843 123.211 18.1155 122.28 18.1155C121.349 18.1155 120.595 18.9843 120.595 20.056C120.595 21.1277 121.349 21.9965 122.28 21.9965Z" fill="white"/>
<path d="M122.28 12.9894C123.211 12.9894 123.966 12.1206 123.966 11.0489C123.966 9.97719 123.211 9.1084 122.28 9.1084C121.349 9.1084 120.595 9.97719 120.595 11.0489C120.595 12.1206 121.349 12.9894 122.28 12.9894Z" fill="white"/>
<path d="M123.957 10.9851H120.588V20.1062H123.957V10.9851Z" fill="white"/>
<path d="M139.875 9.10397C139.622 7.17031 138.996 5.41222 138.103 3.97337C136.633 1.6019 134.436 0.0969238 131.981 0.0969238C129.526 0.0969238 127.329 1.6019 125.86 3.97337H131.981C134.161 3.97337 136.002 6.13963 136.582 9.10397C136.706 9.73674 136.772 10.406 136.772 11.0992C136.772 11.7502 136.714 12.3807 136.603 12.9804C136.122 15.6027 134.658 17.623 132.838 18.111C132.559 18.1863 132.274 18.225 131.981 18.225H125.932C127.391 20.5144 129.536 21.9669 131.931 21.9863C131.948 21.9875 131.964 21.9875 131.981 21.9875C132.099 21.9875 132.217 21.984 132.334 21.9761C134.646 21.8404 136.703 20.3685 138.103 18.111C138.996 16.6722 139.622 14.9152 139.875 12.9804C139.957 12.3511 140 11.7035 140 11.0422C140 10.3809 139.957 9.73333 139.875 9.10397Z" fill="white"/>
<path d="M131.931 0.0969238H113.17V3.97337H131.931V0.0969238Z" fill="white"/>
<path d="M132.335 18.2251H122.248V21.9875H132.335V18.2251Z" fill="white"/>
<path d="M113.372 0.0969238H97.6367V3.97337H113.372V0.0969238Z" fill="white"/>
<path d="M113.574 9.104H97.8389V12.9805H113.574V9.104Z" fill="white"/>
<path d="M68.3863 18.1111H58.8042V21.9875H68.3863V18.1111Z" fill="white"/>
<path d="M113.473 18.1111H97.7378V21.9875H113.473V18.1111Z" fill="white"/>
<path d="M91.3832 0.0969238H74.6396V3.97337H91.3832V0.0969238Z" fill="white"/>
<path d="M98.8474 18.1111H74.5391V21.9875H98.8474V18.1111Z" fill="white"/>
<path d="M58.804 0.0969238H35.9077V3.97337H58.804V0.0969238Z" fill="white"/>
<path d="M49.4238 9.104H36.0088V12.9805H49.4238V9.104Z" fill="white"/>
</g>
<defs>
<clipPath id="clip0_106_183">
<rect width="140" height="22" fill="white"/>
</clipPath>
</defs>
</svg>
