<?xml version="1.0" encoding="UTF-8"?>
<svg id="Layer_1" data-name="Layer 1" xmlns="http://www.w3.org/2000/svg" viewBox="0 0 1388 192.96">
  <defs>
    <style>
      .cls-1 {
        fill: #ff0;
      }
    </style>
  </defs>
  <g>
    <path d="m5.94,34.35C2.43,30.71.5,25.92.5,20.85.5,10.1,9.25,1.35,20,1.35s19.5,8.75,19.5,19.5c0,5.07-1.93,9.85-5.44,13.5H5.94Z"/>
    <path d="m20,1.85c10.48,0,19,8.52,19,19,0,4.87-1.83,9.47-5.16,13H6.16c-3.33-3.53-5.16-8.13-5.16-13C1,10.37,9.52,1.85,20,1.85m0-1C8.95.85,0,9.8,0,20.85c0,5.45,2.18,10.39,5.73,14h28.54c3.55-3.61,5.73-8.55,5.73-14C40,9.8,31.05.85,20,.85h0Z"/>
  </g>
  <g>
    <path d="m361.29,34.35c-8.94,0-16.22-7.41-16.22-16.52s6.66-15.93,15.15-16.48h2.17c8.46.55,15.11,7.79,15.11,16.48s-7.27,16.52-16.21,16.52Z"/>
    <path d="m362.36,1.85c8.21.55,14.64,7.57,14.64,15.98,0,8.83-7.05,16.02-15.71,16.02s-15.72-7.19-15.72-16.02,6.43-15.43,14.65-15.98h2.13m.03-1h-2.2c-8.73.57-15.62,7.95-15.62,16.98s7.48,17.02,16.72,17.02,16.71-7.62,16.71-17.02-6.89-16.41-15.61-16.98h0Z"/>
  </g>
  <g>
    <path d="m586.62,34.29c-8.94,0-16.22-7.42-16.22-16.53,0-8.43,6.2-15.49,14.42-16.41h3.66c8.16.92,14.35,7.98,14.35,16.41,0,9.11-7.27,16.53-16.21,16.53Z"/>
    <path d="m588.42,1.85c7.93.92,13.91,7.75,13.91,15.91,0,8.84-7.05,16.03-15.71,16.03s-15.72-7.19-15.72-16.03c0-8.16,5.98-14.99,13.92-15.91h3.61m.06-1h-3.72c-8.36.94-14.86,8.15-14.86,16.91,0,9.41,7.48,17.03,16.72,17.03s16.71-7.62,16.71-17.03c0-8.76-6.5-15.97-14.85-16.91h0Z"/>
  </g>
  <g>
    <rect x=".5" y="80.35" width="39" height="33"/>
    <path d="m39,80.85v32H1v-32h38m1-1H0v34h40v-34h0Z"/>
  </g>
  <g>
    <path d="m75,192.35c-29.71,0-56.55-13.25-68.38-33.75-3.97-6.87-6.03-14.19-6.11-21.76-.01-.18,0-.33,0-.49,0-7.73,2.06-15.22,6.11-22.25,6.61-11.46,18.27-21.02,32.89-26.99v48.74c0,12.41,15.93,22.5,35.5,22.5s35.5-10.09,35.5-22.5v-48.74c14.61,5.97,26.27,15.53,32.89,26.99,4.06,7.03,6.11,14.52,6.11,22.25,0,.16,0,.31,0,.47-.09,7.59-2.15,14.91-6.11,21.78-11.82,20.5-38.66,33.75-68.38,33.75Z"/>
    <path d="m111,87.86c14.19,5.94,25.5,15.31,31.95,26.49,4.01,6.96,6.05,14.36,6.05,22,0,.15,0,.29,0,.49-.09,7.48-2.12,14.72-6.05,21.51-11.74,20.35-38.41,33.5-67.94,33.5s-56.21-13.15-67.94-33.5c-3.93-6.79-5.96-14.03-6.05-21.56,0-.15,0-.29,0-.44,0-7.64,2.03-15.04,6.05-22,6.45-11.18,17.77-20.55,31.95-26.49v47.99c0,12.68,16.15,23,36,23s36-10.32,36-23v-47.99m-1-1.49v49.48c0,12.15-15.67,22-35,22s-35-9.85-35-22v-49.48c-15.02,5.98-27.01,15.68-33.82,27.48-3.98,6.9-6.18,14.5-6.18,22.5,0,.17,0,.33,0,.5.09,7.81,2.28,15.25,6.18,22,11.54,20.01,38.01,34,68.81,34s57.27-13.99,68.81-34c3.9-6.75,6.09-14.19,6.18-22,.01-.17.01-.33.01-.5,0-8-2.2-15.6-6.18-22.5-6.81-11.8-18.8-21.5-33.82-27.48h0Z"/>
  </g>
  <g>
    <path d="m.5,136.35V27.18c2.67,8.21,10.4,14.17,19.5,14.17s16.83-5.95,19.5-14.17v109.17H.5Z"/>
    <path d="m39,29.79v106.06H1V29.79c3.36,7.12,10.62,12.06,19,12.06s15.64-4.94,19-12.06m1-8.94c0,11.05-8.95,20-20,20S0,31.9,0,20.85v116h40V20.85h0Z"/>
  </g>
  <g>
    <path d="m110.5,136.35V27.19c.77,2.39,1.98,4.6,3.58,6.56.15.2.32.4.5.59l.25.28c.18.2.36.4.56.58.21.23.46.47.72.69l.08.08c.12.11.23.22.35.31.12.11.28.25.44.38.3.25.62.5.95.73.18.15.4.3.63.44.29.19.56.37.83.53.28.17.57.34.86.49,1.15.63,2.39,1.16,3.67,1.56.33.1.65.2.98.28.61.16,1.29.3,2.01.41.62.1,1.27.16,1.97.2.37.03.75.04,1.14.04s.78-.01,1.16-.04c.69-.03,1.33-.1,1.96-.19.72-.11,1.39-.25,2.01-.41.32-.08.64-.17.97-.28,1.28-.4,2.51-.92,3.67-1.56.28-.15.57-.32.86-.49.27-.16.54-.34.81-.52.24-.16.46-.31.67-.48.3-.21.62-.46.93-.72.15-.12.31-.26.46-.4.09-.07.2-.17.32-.28l.09-.09c.24-.21.5-.45.73-.71.17-.16.35-.36.53-.56l.25-.28c.18-.2.35-.4.51-.61,1.59-1.95,2.8-4.16,3.57-6.55v109.16h-39Z"/>
    <path d="m149,29.81v106.04h-38V29.81c.71,1.51,1.61,2.93,2.67,4.24.17.22.35.43.54.64l.13.15.12.13c.18.2.36.4.56.59.23.25.48.49.73.71l.09.09c.11.11.23.21.34.31.15.14.31.27.45.39.27.23.6.49.96.75.22.18.45.33.66.47.28.19.57.38.85.54.3.18.59.35.88.5,1.19.65,2.45,1.19,3.76,1.6.34.11.67.2.99.28.63.17,1.33.31,2.06.42.64.1,1.31.17,2,.2.36.03.75.04,1.2.04s.84-.01,1.17-.04c.72-.03,1.39-.1,2.02-.2.74-.11,1.43-.25,2.05-.42.34-.08.67-.18,1.01-.29,1.31-.41,2.58-.95,3.75-1.59.3-.16.59-.33.88-.5.28-.17.57-.36.85-.55.21-.14.44-.29.66-.47.36-.25.69-.52.95-.73.16-.13.32-.26.47-.4.12-.09.23-.2.34-.31l.07-.07c.28-.24.53-.49.76-.73.19-.19.38-.39.56-.59l.13-.15.12-.13c.19-.21.37-.42.52-.61,1.08-1.32,1.98-2.75,2.69-4.26m1-8.96c0,1.04-.08,2.05-.23,3.04-.1.64-.23,1.27-.38,1.89-.01.03-.01.05-.02.07-.08.32-.17.63-.27.95-.76,2.45-1.98,4.69-3.57,6.64-.19.25-.4.48-.61.72-.21.23-.42.47-.65.69-.22.24-.46.47-.7.68-.14.13-.27.26-.41.37-.14.13-.29.26-.44.38-.3.25-.6.49-.92.71-.2.16-.41.3-.62.44-.27.18-.54.36-.81.52-.28.17-.56.33-.84.48-1.13.62-2.33,1.13-3.58,1.52-.32.1-.63.19-.95.27-.64.17-1.3.3-1.96.4-.63.1-1.27.16-1.92.19-.37.03-.74.04-1.12.04s-.75-.01-1.12-.04c-.65-.03-1.29-.09-1.92-.19-.66-.1-1.32-.23-1.96-.4-.32-.08-.63-.17-.95-.27-1.25-.39-2.45-.9-3.58-1.52-.28-.15-.56-.31-.84-.48-.27-.16-.54-.34-.81-.52-.21-.14-.42-.28-.62-.44-.32-.22-.62-.46-.92-.71-.15-.12-.3-.25-.44-.38-.14-.11-.27-.24-.41-.37-.24-.21-.48-.44-.7-.68-.23-.22-.44-.46-.65-.69-.21-.24-.42-.47-.61-.72-1.59-1.95-2.81-4.19-3.57-6.64-.1-.32-.19-.63-.27-.95-.01-.02-.01-.04-.02-.07-.15-.62-.28-1.25-.38-1.89-.15-.99-.23-2-.23-3.04v116h40V20.85h0Z"/>
  </g>
  <g>
    <path d="m20,40.35c-5.29,0-10.23-2.08-13.91-5.85C2.48,30.84.5,25.99.5,20.85.5,10.1,9.25,1.35,20,1.35s19.5,8.75,19.5,19.5c0,5.14-1.98,9.99-5.59,13.65-3.68,3.77-8.62,5.85-13.91,5.85Z"/>
    <path d="m20,1.85c10.48,0,19,8.52,19,19,0,5.01-1.93,9.73-5.45,13.3-3.59,3.67-8.4,5.7-13.55,5.7s-9.97-2.02-13.56-5.7c-3.51-3.57-5.44-8.29-5.44-13.3C1,10.37,9.52,1.85,20,1.85m0-1C8.95.85,0,9.8,0,20.85c0,5.45,2.18,10.39,5.73,14,3.62,3.71,8.67,6,14.27,6s10.65-2.29,14.27-6c3.55-3.61,5.73-8.55,5.73-14C40,9.8,31.05.85,20,.85h0Z"/>
  </g>
  <g>
    <path d="m130,40.35c-5.29,0-10.23-2.08-13.91-5.85-3.6-3.67-5.59-8.51-5.59-13.65,0-10.75,8.75-19.5,19.5-19.5s19.5,8.75,19.5,19.5c0,5.14-1.98,9.99-5.59,13.65-3.68,3.77-8.62,5.85-13.91,5.85Z"/>
    <path d="m130,1.85c10.48,0,19,8.52,19,19,0,5.01-1.93,9.73-5.45,13.3-3.59,3.67-8.4,5.7-13.55,5.7s-9.97-2.02-13.56-5.7c-3.51-3.57-5.44-8.29-5.44-13.3,0-10.48,8.52-19,19-19m0-1c-11.05,0-20,8.95-20,20,0,5.45,2.18,10.39,5.73,14,3.62,3.71,8.67,6,14.27,6s10.65-2.29,14.27-6c3.55-3.61,5.73-8.55,5.73-14,0-11.05-8.95-20-20-20h0Z"/>
  </g>
  <g>
    <circle cx="197.81" cy="21" r="19.5"/>
    <path d="m197.81,2c10.48,0,19,8.52,19,19s-8.52,19-19,19-19-8.52-19-19S187.33,2,197.81,2m0-1c-11.05,0-20,8.95-20,20s8.95,20,20,20,20-8.95,20-20S208.86,1,197.81,1h0Z"/>
  </g>
  <g>
    <path d="m361.29,34.35c-8.94,0-16.22-7.41-16.22-16.52s6.66-15.93,15.15-16.48c.36-.03.71-.04,1.07-.04s.71,0,1.06.04c8.5.56,15.15,7.79,15.15,16.48s-7.27,16.52-16.21,16.52Z"/>
    <path d="m361.29,1.81c.39,0,.72.01,1.03.04,8.23.54,14.68,7.56,14.68,15.98s-7.05,16.02-15.71,16.02-15.72-7.19-15.72-16.02,6.45-15.44,14.7-15.98c.3-.02.63-.04,1.02-.04m0-1c-.37,0-.74.01-1.1.04-8.73.57-15.62,7.95-15.62,16.98s7.48,17.02,16.72,17.02,16.71-7.62,16.71-17.02-6.89-16.41-15.61-16.98c-.36-.03-.73-.04-1.1-.04h0Z"/>
  </g>
  <g>
    <ellipse cx="286.75" cy="20" rx="19.05" ry="19.5"/>
    <path d="m286.75,1c10.23,0,18.55,8.52,18.55,19s-8.32,19-18.55,19-18.55-8.52-18.55-19,8.32-19,18.55-19m0-1c-10.8,0-19.55,8.95-19.55,20s8.75,20,19.55,20,19.55-8.95,19.55-20S297.55,0,286.75,0h0Z"/>
  </g>
  <g>
    <path d="m286.81,191.5c-.8,0-1.59-.05-2.37-.15-8.4-1.01-15.31-7.53-16.81-15.86-.21-1.13-.32-2.3-.32-3.49,0-1.47.16-2.93.49-4.32.8-3.59,2.61-6.87,5.24-9.48,3.68-3.68,8.57-5.7,13.78-5.7,4.63,0,9.11,1.65,12.62,4.64.38.32.77.67,1.16,1.06,2.62,2.61,4.43,5.89,5.24,9.48.32,1.39.49,2.85.49,4.32,0,9.86-7.36,18.18-17.13,19.35-.78.1-1.57.15-2.37.15Z"/>
    <path d="m286.81,153c4.51,0,8.88,1.61,12.3,4.53.37.3.74.65,1.12,1.03,2.55,2.54,4.32,5.74,5.1,9.24.31,1.35.47,2.77.47,4.2,0,9.61-7.17,17.71-16.69,18.86-.76.09-1.53.14-2.31.14s-1.55-.05-2.31-.14c-8.18-.99-14.92-7.34-16.38-15.46-.21-1.09-.31-2.23-.31-3.39,0-1.44.16-2.85.48-4.21.78-3.49,2.55-6.69,5.1-9.23,3.58-3.58,8.35-5.56,13.42-5.56m0-1c-5.52,0-10.52,2.24-14.13,5.85-2.63,2.62-4.53,5.97-5.37,9.72-.33,1.42-.5,2.91-.5,4.43,0,1.22.11,2.42.33,3.58,1.54,8.56,8.52,15.22,17.24,16.27.8.1,1.61.15,2.43.15s1.63-.05,2.43-.15c9.9-1.19,17.57-9.62,17.57-19.85,0-1.52-.17-3.01-.5-4.43-.84-3.75-2.74-7.1-5.37-9.72-.38-.38-.78-.75-1.19-1.09-3.48-2.97-8-4.76-12.94-4.76h0Z"/>
  </g>
  <g>
    <polygon points="185.23 38.68 185.22 38.61 185.12 38.51 179.97 29.81 213.67 9.86 229.14 36.01 256.4 82.08 303.03 160.92 302.62 161.17 300.67 162.31 269.33 180.87 185.23 38.68"/>
    <path d="m213.5,10.54l15.21,25.73,27.26,46.07,12,20.29,8.59,14.52,25.79,43.61-1.93,1.13-29.83,17.66-1.09.65-10.35-17.5-27.25-46.07-20.59-34.81-25.6-43.28v-.15s-.21-.2-.21-.2l-1.44-2.44-3.41-5.76,32.84-19.45m.35-1.37l-.84.49-33.72,19.97,3.92,6.62,1.51,2.55h.01s0,.02,0,.02l25.73,43.5,20.59,34.81,27.25,46.07,10.85,18.36.36-.21,1.6-.94,29.83-17.66,1.94-1.14.84-.5-26.29-44.46-8.59-14.52-12-20.29-27.26-46.07-15.72-26.59h0Z"/>
  </g>
  <g>
    <rect x="267.81" y="19.35" width="38" height="155.83"/>
    <path d="m305.31,19.85v154.83h-37V19.85h37m1-1h-39v156.83h39V18.85h0Z"/>
  </g>
  <path d="m603.33,17.76c0,9.41-7.48,17.03-16.71,17.03s-16.72-7.62-16.72-17.03c0-8.76,6.5-15.97,14.86-16.91.61-.07,1.23-.11,1.86-.11s1.25.04,1.86.11c8.35.94,14.85,8.15,14.85,16.91Z"/>
  <ellipse cx="740.64" cy="18.11" rx="16.71" ry="17.02"/>
  <ellipse cx="904.64" cy="18.11" rx="16.71" ry="17.02"/>
  <g>
    <path d="m361.22,113.58c-8.94,0-16.22-7.41-16.22-16.52s6.66-15.93,15.15-16.48c.36-.03.71-.04,1.07-.04s.71,0,1.06.04c8.5.56,15.15,7.79,15.15,16.48s-7.27,16.52-16.21,16.52Z"/>
    <path d="m361.22,81.04c.39,0,.72.01,1.03.04,8.23.54,14.68,7.56,14.68,15.98s-7.05,16.02-15.71,16.02-15.72-7.19-15.72-16.02,6.45-15.44,14.7-15.98c.3-.02.63-.04,1.02-.04m0-1c-.37,0-.74.01-1.1.04-8.73.57-15.62,7.95-15.62,16.98s7.48,17.02,16.72,17.02,16.71-7.62,16.71-17.02-6.89-16.41-15.61-16.98c-.36-.03-.73-.04-1.1-.04h0Z"/>
  </g>
  <g>
    <path d="m490.22,113.58c-8.94,0-16.22-7.41-16.22-16.52s6.66-15.93,15.15-16.48c.36-.03.71-.04,1.07-.04s.71,0,1.06.04c8.5.56,15.15,7.79,15.15,16.48s-7.27,16.52-16.21,16.52Z"/>
    <path d="m490.22,81.04c.39,0,.72.01,1.03.04,8.23.54,14.68,7.56,14.68,15.98s-7.05,16.02-15.71,16.02-15.72-7.19-15.72-16.02,6.45-15.44,14.7-15.98c.3-.02.63-.04,1.02-.04m0-1c-.37,0-.74.01-1.1.04-8.73.57-15.62,7.95-15.62,16.98s7.48,17.02,16.72,17.02,16.71-7.62,16.71-17.02-6.89-16.41-15.61-16.98c-.36-.03-.73-.04-1.1-.04h0Z"/>
  </g>
  <rect x="540" y="79.9" width="184.99" height="34" rx="1.94" ry="1.94" transform="translate(400.16 -499.31) rotate(60)"/>
  <ellipse cx="678.02" cy="175.94" rx="17.02" ry="17.02"/>
  <ellipse cx="586.49" cy="175.83" rx="17.02" ry="17.02"/>
  <rect x="707.71" y="79.97" width="229.76" height="34" rx="1.94" ry="1.94" transform="translate(1482.2 -404.01) rotate(136.06)"/>
  <ellipse cx="740.17" cy="175.89" rx="16.71" ry="17.02"/>
  <ellipse cx="1122.17" cy="175.89" rx="16.71" ry="17.02"/>
  <ellipse cx="1122.32" cy="96.91" rx="16.71" ry="17.02"/>
  <ellipse class="cls-1" cx="1122.32" cy="17.91" rx="16.71" ry="17.02"/>
  <ellipse cx="970.32" cy="17.91" rx="16.71" ry="17.02"/>
  <ellipse cx="970.32" cy="96.91" rx="16.71" ry="17.02"/>
  <ellipse class="cls-1" cx="970.32" cy="175.91" rx="16.71" ry="17.02"/>
  <ellipse cx="1212.32" cy="175.91" rx="16.71" ry="17.02"/>
  <ellipse cx="1212.32" cy="96.91" rx="16.71" ry="17.02"/>
  <rect x="1195.55" y="96.35" width="33.4" height="80"/>
  <path d="m1386.76,79.85c-2.51-16.96-8.71-32.38-17.57-45-14.57-20.8-36.35-34-60.69-34s-46.12,13.2-60.69,34h60.69c21.61,0,39.86,19,45.61,45,1.23,5.55,1.89,11.42,1.89,17.5,0,5.71-.58,11.24-1.68,16.5-4.77,23-19.28,40.72-37.33,45-2.76.66-5.59,1-8.49,1h-59.97c14.46,20.08,35.73,32.82,59.47,32.99.17.01.33.01.5.01,1.17,0,2.34-.03,3.5-.1,22.92-1.19,43.31-14.1,57.19-33.9,8.86-12.62,15.06-28.03,17.57-45,.81-5.52,1.24-11.2,1.24-17s-.43-11.48-1.24-17Z"/>
  <rect x="1122" y=".85" width="186" height="34"/>
  <rect x="1212" y="159.85" width="100" height="33"/>
  <rect x="968" y=".85" width="156" height="34"/>
  <rect x="970" y="79.85" width="156" height="34"/>
  <rect x="583" y="158.85" width="95" height="34"/>
  <rect x="969" y="158.85" width="156" height="34"/>
  <rect x="740" y=".85" width="166" height="34"/>
  <rect x="739" y="158.85" width="241" height="34"/>
  <rect x="356" y=".85" width="227" height="34"/>
  <rect x="357" y="79.85" width="133" height="34"/>
</svg>